<svg xmlns="http://www.w3.org/2000/svg" viewBox="0 0 132.14 129.41"><defs><style>.cls-1{fill:#0d6efd;}</style></defs><g id="Layer_2" data-name="Layer 2"><g id="Layer_1-2" data-name="Layer 1"><path class="cls-1" d="M97.81,86.22c-3.1-36.76-60.24-31.53-60.24-49.71,0-6.06,4.1-9.08,9.26-8.91,6.41,0,11.22,3.56,11.58,11.4H96.34c-1.25-24.93-20.12-39-49-39C20.84,0,.36,13.18.36,37.75-.18,81.38,60.72,71.94,60.9,92.07c0,5.87-4.81,9.08-11,9.08-6.41,0-11.93-3.21-12.64-12.65H0c1.43,26.89,23.15,40.25,51.11,40.25,13.06,0,23.69-3.33,31.49-8.94a28.32,28.32,0,0,1-1.24-8.39A27.32,27.32,0,0,1,97.81,86.22Z"/><path class="cls-1" d="M111.84,129.41c-12.47,0-20.48-7.84-20.48-18s8-18.16,20.48-18.16c12.28,0,20.3,8,20.3,18.16S124.12,129.41,111.84,129.41Z"/></g></g></svg>